<svg width="14" height="3" viewBox="0 0 14 3" fill="none" xmlns="http://www.w3.org/2000/svg">
<path d="M7.27482 2.54768C6.56201 2.54768 6.00195 1.9749 6.00195 1.27482C6.00195 0.574743 6.57474 0.00195312 7.27482 0.00195312C7.9749 0.00195312 8.54768 0.574743 8.54768 1.27482C8.54768 1.9749 7.98762 2.54768 7.27482 2.54768Z" fill="#292D32"/>
<path d="M12.3666 2.54768C11.6538 2.54768 11.0938 1.9749 11.0938 1.27482C11.0938 0.574743 11.6665 0.00195312 12.3666 0.00195312C13.0667 0.00195312 13.6395 0.574743 13.6395 1.27482C13.6395 1.9749 13.0794 2.54768 12.3666 2.54768Z" fill="#292D32"/>
<path d="M2.18302 2.54768C1.47022 2.54768 0.910156 1.9749 0.910156 1.27482C0.910156 0.574743 1.48295 0.00195312 2.18302 0.00195312C2.8831 0.00195312 3.45589 0.574743 3.45589 1.27482C3.45589 1.9749 2.89583 2.54768 2.18302 2.54768Z" fill="#292D32"/>
</svg>
