<svg width="29" height="33" viewBox="0 0 29 33" fill="none" xmlns="http://www.w3.org/2000/svg">
<path d="M27.0187 22.5398C28.6076 23.4629 29.1694 25.5302 27.9387 26.8948C26.3288 28.6797 24.3282 30.0907 22.0756 31.0074C18.7887 32.3449 15.1508 32.5541 11.7322 31.6022C8.3136 30.6504 5.30739 28.5912 3.18466 25.7474C1.06194 22.9036 -0.0573268 19.436 0.0022604 15.8878C0.0618476 12.3396 1.29692 8.91151 3.51394 6.14062C5.73095 3.36972 8.80462 1.41266 12.2533 0.576114C15.7019 -0.260431 19.3307 0.0708167 22.5709 1.51795C24.7914 2.5097 26.7435 3.98715 28.2925 5.82512C29.4767 7.23022 28.8458 9.27748 27.2269 10.1467V10.1467C25.6079 11.016 23.6173 10.3428 22.2398 9.12659C21.5325 8.50213 20.7304 7.9838 19.8572 7.59385C17.9619 6.74734 15.8392 6.55358 13.8219 7.04292C11.8046 7.53226 10.0067 8.67705 8.70983 10.2979C7.41298 11.9187 6.69052 13.924 6.65566 15.9995C6.62081 18.0751 7.27552 20.1035 8.51722 21.767C9.75891 23.4304 11.5174 24.635 13.5171 25.1918C15.5169 25.7486 17.6448 25.6262 19.5675 24.8438C20.4533 24.4834 21.2724 23.9923 22.0003 23.3919C23.4178 22.2227 25.4299 21.6167 27.0187 22.5398V22.5398Z" fill="#5932EA"/>
<path d="M20.6813 18.8577C21.6534 19.4224 21.9986 20.6963 21.1914 21.4788C20.5136 22.1357 19.7121 22.6616 18.8262 23.0221C17.3066 23.6404 15.6249 23.7372 14.0445 23.2971C12.464 22.8571 11.0743 21.9051 10.0929 20.5904C9.1116 19.2758 8.59416 17.6727 8.62171 16.0323C8.64926 14.392 9.22023 12.8072 10.2452 11.5262C11.2701 10.2452 12.691 9.34049 14.2853 8.95376C15.8796 8.56703 17.5572 8.72016 19.0551 9.38917C19.9284 9.77919 20.7119 10.3317 21.3672 11.0111C22.1477 11.8202 21.7599 13.0817 20.7694 13.6135C19.7789 14.1453 18.5448 13.6842 17.5419 13.1763C17.4936 13.1519 17.4446 13.1285 17.395 13.1064C16.7198 12.8048 15.9637 12.7358 15.245 12.9101C14.5264 13.0844 13.8859 13.4922 13.424 14.0696C12.962 14.647 12.7046 15.3613 12.6922 16.1007C12.6798 16.8401 12.913 17.5626 13.3554 18.1552C13.7977 18.7478 14.4241 19.1769 15.1365 19.3752C15.8488 19.5736 16.6069 19.53 17.2918 19.2513C17.3421 19.2308 17.3919 19.2091 17.441 19.1863C18.4604 18.7124 19.7093 18.2929 20.6813 18.8577Z" fill="#16C098"/>
</svg>
