<svg width="27" height="27" viewBox="0 0 27 27" fill="none" xmlns="http://www.w3.org/2000/svg">
<path d="M20.9189 25.1243C19.8556 25.4384 18.5989 25.5834 17.1247 25.5834H9.87473C8.40057 25.5834 7.1439 25.4384 6.08057 25.1243C6.3464 21.9826 9.57265 19.5055 13.4997 19.5055C17.4268 19.5055 20.6531 21.9826 20.9189 25.1243Z" stroke="#292D32" stroke-width="1.5" stroke-linecap="round" stroke-linejoin="round"/>
<path d="M17.1248 1.41675H9.87478C3.83311 1.41675 1.41644 3.83341 1.41644 9.87508V17.1251C1.41644 21.6926 2.79394 24.1938 6.08061 25.1242C6.34644 21.9826 9.57269 19.5055 13.4998 19.5055C17.4269 19.5055 20.6531 21.9826 20.9189 25.1242C24.2056 24.1938 25.5831 21.6926 25.5831 17.1251V9.87508C25.5831 3.83341 23.1664 1.41675 17.1248 1.41675ZM13.4998 16.1221C11.1073 16.1221 9.17394 14.1768 9.17394 11.7843C9.17394 9.39177 11.1073 7.45841 13.4998 7.45841C15.8923 7.45841 17.8256 9.39177 17.8256 11.7843C17.8256 14.1768 15.8923 16.1221 13.4998 16.1221Z" stroke="#292D32" stroke-width="1.5" stroke-linecap="round" stroke-linejoin="round"/>
</svg>
